<svg width="188" height="198" viewBox="0 0 188 198" fill="none" xmlns="http://www.w3.org/2000/svg">
<path d="M182 129.5C188.569 159.059 165.981 185.618 136.5 187.5C144 161 162 142.5 182 129.5Z" fill="url(#paint0_linear_1187_1383)"/>
<path d="M122.5 110L117 100C123.015 99.0745 125 98 133.5 94.5C140.5 96.5 146.5 98 151.5 98C167.5 101.5 179 114.5 182 129.5C162.065 142.79 142.938 164.089 136.5 187.5H85.5C104.5 182.5 120.5 168 124 150.5C152 151 153 111 122.5 110Z" fill="url(#paint1_linear_1187_1383)"/>
<path d="M117 100L106.5 90C155.5 94 151.5 50 125.5 48.5C134.5 49 152.5 31 154.5 14.5C191.5 33.5 189 86 151 98C144.929 98 139.159 96.6223 133.5 94.5C128.507 97.3532 122.706 99.2867 117 100Z" fill="url(#paint2_linear_1187_1383)"/>
<path d="M77 47.9999L128 48.4999C141.633 43.1652 152.95 29.2217 154.5 14.4999C124.859 1.1324 87.4163 16.7509 77 47.9999Z" fill="url(#paint3_linear_1187_1383)"/>
<path d="M5 188.5H10.5C41 163 44.5 149.5 59 148L33 147.5L5 188.5Z" fill="url(#paint4_linear_1187_1383)"/>
<path d="M114.574 114L67.5 114.024C83 121.524 84.5 149.024 57 148.024C42 148.524 33.5 166.024 8 188.524C33.5 188.524 45.3551 188.024 63.5 187.524C103 186.524 125.074 154.5 114.574 114Z" fill="url(#paint5_linear_1187_1383)"/>
<path d="M76 9C90.5 9 109.645 9.49988 109.645 9.49988C85.8558 15.5 54.1368 57 73.9612 73.9999C81.3953 80 108.654 88.5 117.079 114H69.9963C55.6236 107 39.2685 100.5 29.7043 85.5C12.4202 54.5529 23 9.5 76 9Z" fill="url(#paint6_linear_1187_1383)"/>
<defs>
<linearGradient id="paint0_linear_1187_1383" x1="159.822" y1="129.5" x2="159.822" y2="187.5" gradientUnits="userSpaceOnUse">
<stop offset="0.336538" stop-color="#005C8D"/>
<stop offset="1" stop-color="#017DBF"/>
</linearGradient>
<linearGradient id="paint1_linear_1187_1383" x1="133.75" y1="94.5" x2="133.75" y2="187.5" gradientUnits="userSpaceOnUse">
<stop stop-color="#A4DFFF"/>
<stop offset="1" stop-color="#005C8D"/>
</linearGradient>
<linearGradient id="paint2_linear_1187_1383" x1="143.71" y1="14.5" x2="143.71" y2="100" gradientUnits="userSpaceOnUse">
<stop stop-color="#005C8D"/>
<stop offset="1" stop-color="#E3F5FF" stop-opacity="0.7"/>
</linearGradient>
<linearGradient id="paint3_linear_1187_1383" x1="115.75" y1="9.698" x2="115.75" y2="48.4999" gradientUnits="userSpaceOnUse">
<stop stop-color="#005C8D"/>
<stop offset="1" stop-color="#005C8D" stop-opacity="0.2"/>
</linearGradient>
<linearGradient id="paint4_linear_1187_1383" x1="32" y1="147.5" x2="32" y2="188.5" gradientUnits="userSpaceOnUse">
<stop stop-color="#C2C2C2"/>
<stop offset="0.913462" stop-color="white" stop-opacity="0"/>
</linearGradient>
<linearGradient id="paint5_linear_1187_1383" x1="62.5899" y1="114" x2="62.5899" y2="188.524" gradientUnits="userSpaceOnUse">
<stop stop-color="#787777"/>
<stop offset="1" stop-color="#B3B3B3"/>
</linearGradient>
<linearGradient id="paint6_linear_1187_1383" x1="69.5656" y1="9" x2="69.5656" y2="114" gradientUnits="userSpaceOnUse">
<stop stop-color="#B0B0B0"/>
<stop offset="0.932692" stop-color="white" stop-opacity="0"/>
</linearGradient>
</defs>
</svg>
